<?xml version="1.0" encoding="utf-8"?>
<!-- Generator: Adobe Illustrator 22.1.0, SVG Export Plug-In . SVG Version: 6.00 Build 0)  -->
<svg version="1.1" id="Layer_1" xmlns="http://www.w3.org/2000/svg" xmlns:xlink="http://www.w3.org/1999/xlink" x="0px" y="0px"
	 viewBox="0 0 172 141" style="enable-background:new 0 0 172 141;" xml:space="preserve">
<style type="text/css">
	.st0{display:none;}
	.st1{display:inline;}
	.st2{fill:#FFFFFF;}
	.st3{fill:#FF00FF;}
</style>
<g>
	<g>
		<g class="st0">
			<g class="st1">
				<path class="st2" d="M74.3,75.5l-0.3,0c-0.6,0-1.4-0.1-2.3-0.2l-0.2,0c-1-0.1-2.2-0.2-3.5-0.4c-1.3-0.2-2.8-0.4-4.2-0.7
					c-1.4-0.3-2.8-0.6-4.2-1.1c-1.1-0.3-2.3-0.8-3.5-1.3c-0.4-0.1-0.7-0.3-1-0.5c-0.1-0.1-0.2-0.1-0.4-0.2l-0.6-0.3l-0.5-0.3
					L52.8,70c-0.1,0-0.1-0.1,0-0.2c0,0,0.1-0.1,0.1-0.1c0,0,0,0,0.1,0l0.9,0.5l0.5,0.2l0.6,0.2c0.1,0.1,0.3,0.1,0.5,0.2
					c0.3,0.1,0.6,0.3,0.9,0.4c0.9,0.3,2,0.7,3.5,1.1c1.4,0.4,2.8,0.7,4.1,1c1.4,0.3,2.8,0.6,4.2,0.8l1.2,0.2
					c0.9,0.2,1.7,0.3,2.5,0.4c0.5,0.1,0.9,0.1,1.3,0.2c0.5,0.1,0.9,0.1,1.3,0.2l1,0.1c0.1,0,0.1,0.1,0.1,0.2c0,0.1-0.1,0.1-0.2,0.1
					C75.3,75.5,74.3,75.5,74.3,75.5z"/>
			</g>
			<g class="st1">
				<path class="st2" d="M63,71.7c0,0-1.7-0.4-3.3-1.1c-0.5-0.2-1-0.5-1.6-0.9c-0.1,0-0.3,0-0.4,0c0,0-0.1,0-0.1,0
					c0,0,0.1,0.1,0.1,0.1c0.9,0.7,1.9,1.3,1.9,1.3c0.1,0,0.1,0.1,0.1,0.2c0,0.1-0.1,0.1-0.1,0.1c0,0,0,0-0.1,0c0,0-1.1-0.5-2.1-1.1
					c-0.5-0.3-0.9-0.6-1.3-0.9c-0.6-0.2-1-0.6-1-1c0-0.7,1.1-1.3,2.6-1.3c1.5,0,2.6,0.6,2.6,1.3c0,0.5-0.5,0.9-1.2,1.1
					c0.3,0.2,0.6,0.4,0.9,0.6c1.4,0.9,3.1,1.3,3.1,1.4c0.1,0,0.1,0.1,0.1,0.2C63.2,71.7,63.1,71.7,63,71.7C63,71.7,63,71.7,63,71.7z
					"/>
			</g>
			<g class="st1">
				<path class="st2" d="M87,75.1c-12.9,0-22.9-2.6-22.9-5.9s10.1-5.9,22.9-5.9c12.9,0,22.9,2.6,22.9,5.9S99.9,75.1,87,75.1z
					 M66.7,69.6c0,0.1,0.1,0.2,0.1,0.3l0.1,0.2c0.1,0.1,0.2,0.2,0.2,0.3c0.2,0.2,0.4,0.4,0.7,0.6c0.8,0.6,1.7,0.9,2.7,1.3
					c1.6,0.5,3.4,0.9,5.8,1.3c1.8,0.3,3.8,0.4,5.9,0.5c1,0.1,2,0.1,3.2,0.1c0.8,0,1.7,0,2.5,0c3.6-0.1,7.1-0.5,10-1
					c2.9-0.6,5.3-1.3,6.8-2.1c0,0,0.1-0.1,0.1-0.1c-0.1,0-0.1,0-0.2,0.1c-0.7,0.3-1.7,0.6-2.9,0.9c-1.1,0.2-2.4,0.4-3.9,0.6
					c-1.4,0.2-3,0.3-4.7,0.4C91.8,73,90.2,73,88,73c-1.6,0-3.3-0.1-5.6-0.2c-2-0.1-3.9-0.3-5.8-0.6c-2.3-0.3-4-0.7-5.6-1.2
					c-0.4-0.1-0.9-0.3-1.3-0.5c-0.5-0.2-0.8-0.4-1.2-0.6c-0.2-0.1-0.3-0.2-0.4-0.4l-0.1-0.1c0,0-0.1-0.1-0.1-0.1c0,0,0,0,0,0
					c0,0,0,0-0.1-0.1c0,0,0-0.1,0-0.1l0-0.1c0,0,0,0,0-0.1c0,0,0-0.1,0-0.1c0-0.1,0.1-0.2,0.2-0.4c0.5-0.5,1.3-0.9,2.1-1.3
					c0.7-0.3,1.4-0.5,2.4-0.8c1.4-0.4,2.9-0.7,4.6-1c2.8-0.5,5.2-0.7,7-0.9c0,0,0.1,0,0.1,0c0,0-0.1,0-0.1,0c-0.5,0-1,0-1.5,0
					c-1.9,0-3.8,0.1-5.6,0.3c-1.3,0.1-2.9,0.3-4.7,0.7c-0.7,0.2-1.6,0.4-2.6,0.7c-0.8,0.3-1.7,0.7-2.5,1.4c-0.2,0.2-0.4,0.4-0.5,0.8
					c-0.1,0.2-0.1,0.4-0.1,0.5l0,0.1l0,0.1l-0.1,0.1l0.1,0L66.7,69.6z"/>
			</g>
			<g class="st1">
				<path class="st2" d="M117.3,66.1C117.2,66.1,117.2,66.1,117.3,66.1c0,0-0.4-0.1-0.9-0.3c-0.4-0.1-1-0.3-1.6-0.4l-0.7-0.2
					c-1-0.2-2.1-0.5-3.3-0.7l-0.1,0c-1.2-0.2-2.5-0.5-3.9-0.7c-1.2-0.2-2.6-0.4-3.9-0.6c-0.5-0.1-0.9-0.1-1.3-0.2
					c-0.8-0.1-1.5-0.2-2.1-0.3l-2.5-0.3l-0.9-0.1c-0.1,0-0.1-0.1-0.1-0.2c0-0.1,0.1-0.1,0.2-0.1l0.9,0c0.2,0,0.4,0,0.6,0
					c0.5,0,1.1,0,1.9,0.1c1,0.1,2.2,0.1,3.5,0.3c1.4,0.2,2.7,0.3,4,0.5c1.4,0.2,2.8,0.5,4,0.8c1.2,0.3,2.3,0.6,3.3,0.9l0.1,0
					c0.9,0.3,1.7,0.6,2.4,0.8c0.6,0.2,0.9,0.4,0.9,0.4c0.1,0,0.1,0.1,0.1,0.2C117.4,66.1,117.3,66.1,117.3,66.1z"/>
			</g>
			<g class="st1">
				<path class="st2" d="M65.3,33.2c-0.1,0-0.1,0-0.1-0.1c0-0.1,0-0.1,0.1-0.2c6-3.3,14.3-5.2,22.7-5.2c8.2,0,16.1,1.7,22,4.8
					c0.1,0,0.1,0.1,0.1,0.2c0,0.1-0.1,0.1-0.1,0.1c0,0,0,0,0,0c-4.9-0.7-12.7-1.4-21.8-1.4c-3.5,0-6.9,0.1-10.3,0.3c0,0,0,0,0,0
					c-0.1,0-0.1,0-0.1-0.1c0-0.1,0-0.1,0-0.2c0.3-0.4,0.7-0.7,1-0.9c0.3-0.2,0.6-0.5,0.9-0.7c-0.3,0.1-0.7,0.3-1,0.5
					c-1,0.5-1.9,1.2-2.1,1.4c0,0.1-0.1,0.1-0.1,0.1c-1.3,0.1-2.5,0.2-3.7,0.3c0,0,0,0,0,0c-0.1,0-0.1,0-0.1-0.1c0-0.1,0-0.1,0.1-0.2
					c0.7-0.4,1.5-0.9,2.3-1.3c0.5-0.2,1.1-0.5,1.8-0.8c-0.6,0.1-1.2,0.3-1.9,0.5c-1.1,0.3-2.1,0.8-2.9,1.2c-0.3,0.2-0.6,0.4-0.9,0.6
					l-0.2,0.2c0,0,0,0-0.1,0C68.8,32.6,67,32.9,65.3,33.2C65.3,33.2,65.3,33.2,65.3,33.2z"/>
			</g>
			<g class="st1">
				<path class="st2" d="M84.8,26.2c-0.1,0-0.1,0-0.1-0.1c0-0.1,0-0.2,0.1-0.2c0.1,0,1.3-0.7,2.9-1c0,0,0.5-0.1,0.7-0.5
					c0.1-0.2,0-0.4-0.1-0.7c0,0,0-0.1,0-0.2c0,0,0.1-0.1,0.1-0.1c0,0,0,0,0,0c0.1,0,3.5,0.2,4,2.4c0,0,0,0.1,0,0.1c0,0-0.1,0-0.1,0
					c0,0,0,0,0,0c0,0-1.7-0.2-3.7-0.2C87,25.9,85.8,26,84.8,26.2C84.8,26.2,84.8,26.2,84.8,26.2z"/>
			</g>
			<g class="st1">
				<path class="st2" d="M87.7,85.6c-8.1,0-16.3-0.4-24.4-1.1c-7-0.7-14.1-1.7-21.1-3.2c-5-1-9.9-2.4-14.5-4l-2.3-0.9
					c-0.4-0.2-0.8-0.3-1.2-0.5c-0.2-0.1-0.3-0.2-0.5-0.2l-1.4-0.6c-0.1,0-0.1-0.1-0.1-0.2c0-0.1,0.1-0.1,0.1-0.1c0,0,0,0,0.1,0
					l1.4,0.5c0.2,0.1,0.3,0.1,0.5,0.2c0.3,0.1,0.7,0.3,1.2,0.4l2.3,0.8c2.3,0.8,7.3,2.3,14.5,3.6c6.1,1.2,13.3,2.2,21,2.8
					c7.5,0.7,15.2,1,22.8,1c0.5,0,1,0,1.5,0c8.3,0,16.5-0.4,24.3-1.1c8-0.8,15-1.8,21-3c5.4-1.1,10.5-2.4,14.5-3.8l2.3-0.8
					c0.4-0.2,0.8-0.3,1.2-0.5c0.2-0.1,0.3-0.1,0.5-0.2l1.4-0.6c0,0,0,0,0.1,0c0.1,0,0.1,0,0.1,0.1c0,0.1,0,0.2-0.1,0.2l-1.4,0.6
					c-0.2,0.1-0.3,0.1-0.5,0.2c-0.3,0.2-0.7,0.3-1.1,0.5l-2.3,0.9c-3.1,1.2-8.2,2.8-14.5,4.2c-6.7,1.4-14,2.6-21,3.3
					C104.3,85.1,96.1,85.5,87.7,85.6L87.7,85.6z"/>
			</g>
			<g class="st1">
				<path class="st2" d="M58.4,35.6c-0.1,0-0.1,0-0.2-0.1c0-0.1,0-0.2,0.1-0.2l2.4-0.6l2.8-0.6c1-0.2,2.2-0.4,3.5-0.6l0.2,0
					c0.2,0,0.5-0.1,0.7-0.1c0.4-0.1,0.9-0.2,1.4-0.2l4.7-0.6c0.6-0.1,1.1-0.1,1.7-0.2l3.4-0.3c0.6,0,1.1-0.1,1.7-0.1
					c0.3,0,0.6,0,1,0l2.7-0.1l2.7,0c0.3,0,0.6,0,0.9,0c3.5,0,6.9,0.2,9.8,0.3c3.4,0.2,6.6,0.6,9.3,0.9c2.7,0.3,4.9,0.7,6.5,1
					c1.6,0.3,2.5,0.5,2.5,0.5c0.1,0,0.1,0.1,0.1,0.2c0,0.1-0.1,0.1-0.2,0.1c0,0,0,0,0,0c0,0-0.9-0.2-2.5-0.4
					c-1.8-0.3-4.2-0.6-6.6-0.8c-2.8-0.3-6.1-0.5-9.3-0.8c-2.7-0.1-5.8-0.3-9.1-0.3c-0.5,0-1.1,0-1.6,0l-2.7,0c0,0-3.3,0.1-3.7,0.1
					c-0.6,0-1.1,0-1.7,0.1l-2.6,0.2c-0.3,0-0.7,0-1,0.1c-0.5,0-1,0.1-1.5,0.1l-4.7,0.5c-0.5,0.1-1,0.1-1.4,0.2
					c-0.2,0-0.5,0.1-0.7,0.1l-3.7,0.5l-2.8,0.5L58.4,35.6C58.5,35.6,58.4,35.6,58.4,35.6z"/>
			</g>
			<g class="st1">
				<path class="st2" d="M118.5,40.7c-0.9-0.1-1.8-0.2-2.8-0.3c0,0-0.1,0-0.1-0.1c-0.3-0.6-0.7-1.1-1-1.5c-0.2-0.3-0.5-0.6-0.7-0.8
					c0.2,0.3,0.3,0.6,0.5,1c0.2,0.3,0.3,0.7,0.5,1.1c0,0.1,0,0.1,0,0.1c0,0-0.1,0.1-0.1,0.1c0,0,0,0,0,0c-8.7-0.9-17.8-1.4-27.2-1.4
					c-7.8,0-15.6,0.3-23,1c0,0,0,0,0,0c0,0-0.1,0-0.1,0c0,0,0-0.1,0-0.1c0-0.1,0-0.3,0-0.5c0-0.2,0-0.4,0.1-0.5
					c-0.1,0.1-0.2,0.3-0.3,0.4c-0.1,0.2-0.3,0.4-0.4,0.7c0,0-0.1,0.1-0.1,0.1c-0.8,0.1-1.6,0.2-2.4,0.2c0,0,0,0,0,0
					c0,0-0.1,0-0.1-0.1c0,0,0-0.1,0-0.1c0.1-0.3,0.2-0.7,0.3-0.9c0.1-0.2,0.2-0.5,0.3-0.7c-0.2,0.2-0.3,0.4-0.5,0.6
					c-0.4,0.5-0.7,1-0.9,1.3c0,0-0.1,0.1-0.1,0.1c-0.9,0.1-1.8,0.2-2.7,0.3c0,0,0,0,0,0c0,0-0.1,0-0.1-0.1c0,0,0-0.1,0-0.2
					c0.8-1.6,2-3.1,3.6-4.6c0,0,0,0,0.1,0c8.3-1.8,17.4-2.7,27.1-2.7c12.3,0,22.4,1.5,26.1,2.1c0,0,0.1,0,0.1,0
					c2,1.6,3.5,3.4,4.4,5.2c0,0.1,0,0.1,0,0.2C118.6,40.7,118.5,40.7,118.5,40.7C118.5,40.7,118.5,40.7,118.5,40.7z M67.8,36.4
					c0,0,0.1,0,0.1,0.1c0,0,0,0.1,0,0.1c0,0.1,0,0.2,0,0.3c0,0.8,0.7,1.5,1.7,1.5c0.9,0,1.7-0.7,1.7-1.5c0-0.1,0-0.3-0.1-0.4
					c0,0,0-0.1,0-0.1c0,0,0.1-0.1,0.1-0.1l0.6,0c2-0.1,4.2-0.2,6.7-0.3l0.7,0c0.5,0,1,0,1.5,0c0.9,0,1.8-0.1,2.7-0.1
					c0.5,0,1,0,1.6,0c0,0,1.3,0,1.3,0c0.1,0,0.1,0.1,0.2,0.1c0.1,0.7,0.8,1.2,1.6,1.2c0.8,0,1.5-0.5,1.6-1.3c0-0.1,0.1-0.1,0.2-0.1
					l0.8,0c0.4,0,0.9,0,1.3,0l0.9,0c1.1,0,2.2,0,3.3,0c2.3,0,4.7,0.1,7.4,0.2c0.9,0,1.7,0.1,2.5,0.1c0,0,0.1,0,0.1,0.1
					c0,0,0,0.1,0,0.1c0,0.1,0,0.2,0,0.3c0,0.8,0.7,1.5,1.7,1.5c0.9,0,1.7-0.7,1.7-1.5c0,0,0-0.1,0-0.1c0,0,0-0.1,0-0.1
					c0,0,0,0,0-0.1c0,0,0,0,0-0.1c-0.2-0.7-0.8-1.2-1.6-1.2c-0.6,0-1.2,0.3-1.5,0.8c0,0-0.1,0.1-0.1,0.1c0,0,0,0,0,0
					c-0.9-0.1-1.8-0.2-2.6-0.3c-2.4-0.2-4.9-0.4-7.4-0.5l-0.5,0c-1.2-0.1-2.5-0.1-3.7-0.1c-0.8,0-1.6,0-2.4,0c-0.1,0-0.1,0-0.1-0.1
					c-0.3-0.5-0.8-0.8-1.4-0.8c-0.6,0-1.2,0.3-1.5,0.8c0,0-0.1,0.1-0.1,0.1c-0.5,0-1.1,0-1.6,0c-0.5,0-1,0-1.5,0
					c-0.9,0-1.8,0.1-2.7,0.1c-0.5,0-1,0.1-1.5,0.1c-3.1,0.2-5.5,0.4-7.4,0.7c-0.3,0-0.6,0.1-0.8,0.1c0,0,0,0,0,0c0,0-0.1,0-0.1-0.1
					c-0.3-0.4-0.8-0.6-1.3-0.6c-0.7,0-1.3,0.4-1.5,1c0,0-0.1,0.1-0.1,0.1L67.8,36.4z"/>
			</g>
			<g class="st1">
				<path class="st2" d="M22.4,72.7C22.3,72.7,22.3,72.7,22.4,72.7l-1-0.4l-0.3-0.1c-0.6-0.3-1.4-0.7-2.1-1.4
					c-0.5-0.4-0.9-1-1.2-1.6c-0.4-0.7-0.5-1.5-0.4-2.3c0.1-0.8,0.4-1.5,0.8-2.3c0.4-0.6,0.9-1.2,1.5-1.9c1-0.9,2.2-1.8,3.8-2.6
					c1.3-0.7,2.7-1.2,3.6-1.5c0.9-0.3,1.7-0.5,2.3-0.6l0.4-0.1l1-0.2c0,0,0,0,0,0c0.1,0,0.1,0,0.1,0.1c0,0.1,0,0.2-0.1,0.2l-1,0.4
					c-0.6,0.2-1.4,0.6-2.5,1c-0.9,0.4-2.1,1-3.3,1.7c-1.4,0.8-2.5,1.6-3.4,2.5c-0.8,0.8-1.9,2-2.1,3.3c-0.2,1,0.2,2.2,1,3
					c0.7,0.8,1.5,1.3,2,1.7l0.9,0.6c0.1,0,0.1,0.1,0.1,0.2C22.5,72.6,22.4,72.7,22.4,72.7z"/>
			</g>
			<g class="st1">
				<path class="st2" d="M113,72.4c-0.1,0-0.1,0-0.1-0.1c0-0.1,0-0.2,0.1-0.2c0,0,0.4-0.1,0.9-0.4c0.6-0.3,1.2-0.7,1.8-1.1
					c0.4-0.3,0.7-0.6,1-0.8c-0.1,0-0.3,0-0.4,0c-0.2,0-0.4,0-0.6,0c-0.1,0.1-0.3,0.2-0.5,0.3c-0.6,0.4-1.3,0.7-1.3,0.7
					c0,0,0,0-0.1,0c-0.1,0-0.1,0-0.1-0.1c0-0.1,0-0.2,0.1-0.2c0,0,0.6-0.4,1.1-0.9c0,0,0,0,0,0c-0.8-0.2-1.2-0.7-1.2-1.1
					c0-0.7,1.1-1.3,2.6-1.3c1.5,0,2.6,0.6,2.6,1.3c0,0.4-0.3,0.7-0.8,1c0,0.1-0.1,0.2-0.3,0.3c-0.5,0.5-1.1,1-1.7,1.4
					c-0.6,0.4-1.3,0.8-1.9,1C113.5,72.3,113.1,72.4,113,72.4C113.1,72.4,113.1,72.4,113,72.4z"/>
			</g>
			<g class="st1">
				<path class="st2" d="M134.6,55.4c0,0-1.2-0.2-3.1-0.4c-1.7-0.2-4-0.4-6.7-0.7l-1.5-0.2c-2.6-0.3-5.6-0.5-8.7-0.7
					c-1-0.1-1.9-0.1-2.9-0.2c-2.2-0.2-4.5-0.3-6.6-0.4c-0.8,0-1.6-0.1-2.4-0.1c-1.4-0.1-2.9-0.1-4.4-0.2c-0.6,0-1.1,0-1.7-0.1
					c-1.7-0.1-3.4-0.1-5.1-0.2l-3.3-0.1c-0.3,0-0.6,0-0.9,0c-0.4,0-0.8,0-1.2,0c-0.4,0-0.8,0-1.1,0l-3.3,0c-0.6,0-1.2,0-1.7,0
					c-0.4,0-0.8,0-1.1,0c-0.6,0-1.2,0-1.8,0c-1.3,0-2.5,0-3.7,0.1l-4.7,0.2c-1.1,0.1-2,0.1-2.9,0.2L65,52.9c0,0-3.1,0.2-3.1,0.2
					c-0.1,0-0.1-0.1-0.2-0.1c0-0.1,0-0.2,0.1-0.2l3.1-0.4c0.4-0.1,0.9-0.1,1.3-0.2c0.7-0.1,1.4-0.2,2.2-0.3l4.7-0.4
					c1.2-0.1,2.4-0.2,3.7-0.2c0.6,0,1.2-0.1,1.8-0.1c0.3,0,0.7,0,1-0.1c0.7,0,1.3-0.1,2-0.1l3.2-0.1c0.4,0,0.8,0,1.1,0
					c0.6,0,1.1,0,1.7,0l3.9,0c1.6,0,3.3,0,5,0.1c0.6,0,1.1,0,1.7,0c1.5,0,3,0.1,4.4,0.2c0.8,0,1.6,0.1,2.4,0.1
					c2.1,0.2,4.4,0.3,6.6,0.5c4.6,0.4,8.9,0.9,11.6,1.3c3,0.4,5.6,0.8,7.5,1.1l0.7,0.1c1.9,0.3,3.1,0.6,3.1,0.6
					c0.1,0,0.1,0.1,0.1,0.2C134.8,55.3,134.7,55.4,134.6,55.4C134.6,55.4,134.6,55.4,134.6,55.4z"/>
			</g>
			<g class="st1">
				<path class="st2" d="M89,81c0,0-1.9-0.1-3.8-0.4c-0.7-0.1-1.5-0.3-2.4-0.5c-1.9,0-3.8-0.1-5.7-0.1c1,0.3,1.8,0.6,1.8,0.6
					c0.1,0,0.1,0.1,0.1,0.2c0,0.1-0.1,0.1-0.2,0.1c0,0,0,0,0,0c0,0-1.7-0.2-3.4-0.6c-0.5-0.1-1-0.2-1.6-0.4
					c-2.2-0.1-4.4-0.2-6.5-0.3c1.5,0.6,2.8,1.1,2.8,1.1c0.1,0,0.1,0.1,0.1,0.2c0,0.1-0.1,0.1-0.1,0.1c0,0,0,0,0,0
					c0,0-1.9-0.4-3.8-0.9c-0.7-0.2-1.4-0.4-2.2-0.7c-1.5-0.1-3-0.2-4.5-0.4c1.5,0.7,2.9,1.3,2.9,1.4c0.1,0,0.1,0.1,0.1,0.2
					c0,0.1-0.1,0.1-0.1,0.1c0,0,0,0,0,0c0,0-1.9-0.5-3.8-1.2c-0.6-0.2-1.3-0.5-2.1-0.8c-2.2-0.2-4.4-0.5-6.5-0.8
					c1.7,0.8,3.3,1.6,3.3,1.6c0.1,0,0.1,0.1,0.1,0.2c0,0.1-0.1,0.1-0.1,0.1c0,0,0,0,0,0c0,0-1.9-0.5-3.8-1.2c-1.1-0.4-1.9-0.7-2.6-1
					c-0.1-0.1-0.3-0.1-0.4-0.2c-1.7-0.3-3.4-0.5-5-0.8c0,0,0.1,0,0.1,0.1c1.8,1,3.7,1.8,3.7,1.8c0.1,0,0.1,0.1,0.1,0.2
					c0,0.1-0.1,0.1-0.1,0.1c0,0,0,0,0,0c0,0-2.1-0.5-4-1.3c-1.4-0.5-2.7-1.2-3.3-1.6c-1.2-0.3-2.5-0.6-3.6-0.9
					c0.1,0.1,0.3,0.2,0.4,0.4c1.8,1.4,3.8,2.5,3.8,2.5c0.1,0,0.1,0.1,0.1,0.2c0,0.1-0.1,0.1-0.1,0.1c0,0,0,0-0.1,0
					c0,0-2.2-0.9-4.2-2.1c-0.8-0.5-1.7-1.1-2.6-1.8c-2.3-0.7-4.2-1.4-5.7-2.2c0.1,0.1,0.2,0.3,0.4,0.4c0.9,0.9,2,1.7,3,2.3
					c0.4,0.2,0.7,0.4,1.1,0.6l0.4,0.2c0.1,0,0.1,0.1,0.1,0.2c0,0.1-0.1,0.1-0.1,0.1c0,0,0,0,0,0l-0.5-0.1c-0.4-0.1-0.8-0.3-1.2-0.5
					c-1.1-0.5-2.3-1.2-3.4-2c-0.9-0.8-1.8-1.7-2.5-2.6c-1.4-1-2.1-2.2-2.1-3.3c0-1.9,2-3.8,6-5.5c0,0,0,0,0.1,0c0,0,0.1,0,0.1,0
					c0,0,0.1,0.1,0.1,0.2c-0.1,0.3-0.1,0.6-0.2,0.9l0,0.1l0.1-0.1c0.4-0.5,0.7-0.8,1-1.1c0.3-0.3,0.5-0.5,0.8-0.7c1-0.4,2-0.7,3.2-1
					c0,0,0,0,0,0c0,0,0.1,0,0.1,0.1c0,0,0,0.1,0,0.2c-0.2,0.4-0.3,0.8-0.4,1.2c0,0,0,0.1,0,0.1c0,0,0,0,0.1-0.1
					c0.3-0.4,0.8-0.9,1.3-1.2c0.5-0.3,1-0.6,1.5-0.8c0.3-0.1,0.5-0.2,0.6-0.2c0,0,0,0,0.1,0c1.1-0.3,2.2-0.5,3.5-0.8c0,0,0,0,0,0
					c0.1,0,0.1,0,0.1,0.1c0,0.1,0,0.1,0,0.2C38.5,59,38,59.5,37.7,60c0.6-0.5,1.5-1.1,2.4-1.7c0.4-0.2,0.8-0.4,1.2-0.6
					c1.3-0.3,2.6-0.5,4-0.7c0,0,0,0,0,0c0.1,0,0.1,0,0.1,0.1c0,0.1,0,0.1,0,0.2c-0.5,0.5-1,1.1-1.4,1.6c0,0-0.1,0.1-0.1,0.1
					c0,0,0.1-0.1,0.1-0.1c0.7-0.5,1.5-1,2.3-1.5c0.8-0.4,1.5-0.7,2-0.9c1.7-0.2,3.5-0.5,5.2-0.7c0,0,0,0,0,0c0.1,0,0.1,0,0.1,0.1
					c0,0.1,0,0.1,0,0.2c-0.8,0.7-1.4,1.4-1.9,1.9c0.7-0.4,1.6-1,2.6-1.5c1-0.5,2-0.8,2.7-1.1c1.6-0.2,3.2-0.3,4.8-0.4c0,0,0,0,0,0
					c0.1,0,0.1,0,0.1,0.1c0,0.1,0,0.1,0,0.2c-0.4,0.5-0.8,1-1.2,1.6L60.6,57l0.1-0.1c0.7-0.5,1.3-0.9,1.9-1.3c0.7-0.4,1.4-0.7,2-0.8
					c0.1,0,0.2,0,0.3-0.1c2.8-0.2,5.7-0.4,8.6-0.5c0,0,0,0,0,0c0.1,0,0.1,0,0.1,0.1c0,0.1,0,0.1,0,0.2l-0.1,0.1
					c-0.1,0-0.1,0.1-0.2,0.2c-0.6,0.6-1.3,1.4-1.7,2.1c0,0,0,0.1-0.1,0.1c0,0,0.1-0.1,0.1-0.1c0.6-0.5,1.4-1.1,2.2-1.5
					c0.8-0.4,1.6-0.8,2.4-1c0.3-0.1,0.5-0.2,0.7-0.2c3.2-0.1,6.4-0.2,9.7-0.2h0c0.1,0,0.1,0,0.1,0.1c0,0.1,0,0.1,0,0.2
					c-0.6,0.5-1.1,1.1-1.5,1.5c0.5-0.3,1.3-0.6,2-0.9c0.8-0.4,1.6-0.7,2.2-0.9c36,0.2,64.2,5.9,64.2,13c0,6.6-25,12.2-58.3,12.9
					c1.3,0.4,2.4,0.6,2.4,0.6c0.1,0,0.1,0.1,0.1,0.2c0,0.1-0.1,0.1-0.2,0.1c0,0,0,0,0,0c0,0-1.8-0.1-3.5-0.4
					c-1.1-0.1-2.2-0.3-2.9-0.5c-1.3,0-2.5,0-3.8,0c-0.3,0-0.5,0-0.8,0c1.3,0.4,2.5,0.6,2.5,0.6c0.1,0,0.1,0.1,0.1,0.2
					C89.1,81,89.1,81,89,81C89,81,89,81,89,81z M50.8,69.8c0.1,0,0.1,0,0.1,0.1c2.1,4,17.6,7,36,7c20,0,36.2-3.5,36.2-7.8
					c0-4.3-16.2-7.8-36.2-7.8c-18,0-33.4,2.9-35.9,6.8c0,0-0.1,0.1-0.1,0.1c0,0-3.3,0.2-3.3,0.2c-0.1,0-0.1,0-0.1-0.1
					c0-0.1,0-0.1,0-0.2c0.4-0.6,0.8-1.1,1.4-1.6c0.9-0.8,1.9-1.5,3.1-2.1c1.1-0.6,2.4-1.1,4.2-1.6c3.4-1,6.6-1.9,8.2-2.3
					c0.1,0,0.2-0.1,0.4-0.1c-0.1,0-0.2,0-0.4,0.1c-1.6,0.3-4.9,0.8-8.4,1.5c-1.8,0.4-3.2,0.8-4.5,1.3c-1.3,0.5-2.6,1.2-3.6,2
					c-1.1,0.9-1.8,1.7-2.1,2.2c-0.3,0.4-0.5,0.7-0.6,0.9c0,0-0.1,0.1-0.1,0.1c0,0-1.8,0.1-1.8,0.1c0,0-0.1,0-0.1-0.1
					c0,0,0-0.1,0-0.1c0.2-0.6,0.4-1.1,0.7-1.7c0.3-0.6,0.7-1.2,1.1-1.7c0,0,0-0.1,0.1-0.1c0,0-0.1,0-0.1,0.1
					c-0.5,0.3-1.2,0.8-1.7,1.3c-0.5,0.5-1,1.1-1.4,1.6c-0.3,0.4-0.5,0.7-0.5,0.8c0,0-0.1,0.1-0.1,0.1l-8,0.5L50.8,69.8z M122.9,74.2
					c-0.8,0.4-1.7,0.8-2.3,1c21.1-0.9,26.8-4.4,28.2-6.5c0.5-0.7,0.7-1.4,0.5-2.2c-0.4-1.4-5.1-3.1-13-4.6c0,0-0.1,0-0.1-0.1
					c0,0,0-0.1,0-0.1l0.5-1.6l-2.1,1.4c0,0-0.1,0-0.1,0c0,0,0,0,0,0c-3.3-0.6-6.8-1.1-10.6-1.6c-0.1,0-0.1-0.1-0.1-0.2
					c0-0.2,0-0.5,0-0.8c0-0.5,0-0.9,0.1-1.3c-0.2,0.3-0.5,0.6-0.8,1c-0.2,0.3-0.5,0.6-0.7,0.9c0,0-0.1,0.1-0.1,0.1c0,0,0,0,0,0
					c-8.7-1-17.7-1.6-25.4-1.6c-1.2,0-2.4,0-3.6,0c5.5,0.2,10.5,0.7,15,1.3c0.2,0,0.5,0,0.8,0l0.3,0c1.6,0,3.3,0.1,4.9,0.3
					c1.7,0.2,3.6,0.5,5.1,0.8c1.4,0.3,2.3,0.6,2.3,0.6c0.1,0,0.1,0.1,0.1,0.2c0,0.1-0.1,0.1-0.1,0.1c0,0,0,0,0,0
					c0,0-0.9-0.2-2.3-0.4c-1.4-0.2-3.1-0.4-4.7-0.4c5,1.1,7.5,2.1,7.9,2.3c1.2-0.4,2.3-0.6,3.3-0.6c3.1,0,4.9,1.8,4.9,3.5
					c0,1.1-0.9,2.5-3.3,2.5c0,0.9-0.2,1.8-0.8,2.6l2.9,0.3c0.1,0,0.1,0.1,0.1,0.2c0,0.1-0.1,0.1-0.1,0.2l-3.8,0.5
					c-0.3,0.3-0.6,0.5-0.9,0.8c0.3,0,0.6,0,0.9,0c0.5,0,0.9,0,1.5-0.1c0,0,9.9-0.8,9.9-0.8c0.1,0,0.1,0.1,0.2,0.1
					c0,0.1,0,0.2-0.1,0.2l-9.8,1.5c-0.4,0.1-0.9,0.1-1.5,0.2c-0.3,0-0.7,0-1,0.1c-0.6,0-1.1,0.1-1.6,0.1
					C123,74.1,122.9,74.2,122.9,74.2z"/>
			</g>
			<g class="st1">
				<path class="st2" d="M12.3,67.9c0,0-0.1,0-0.1,0c-0.1-0.1-0.3-0.3-0.4-0.4c0,0-0.1-0.1-0.1-0.1c0-0.1,0-0.1,0-0.2
					c0-0.5,0.2-1,0.3-1.5c0.1-0.3,0.3-0.6,0.4-0.9c-0.2,0.3-0.5,0.5-0.6,0.8c-0.2,0.3-0.4,0.7-0.6,1.1c0,0.1-0.1,0.1-0.1,0.1
					c0,0,0,0,0,0c0,0-0.1,0-0.1-0.1c-0.2-0.2-0.3-0.5-0.5-0.8c0,0,0-0.1,0-0.1c0.1-0.3,0.2-0.5,0.3-0.7c0.1-0.2,0.2-0.4,0.3-0.6
					c-0.2,0.1-0.3,0.3-0.5,0.5c-0.1,0.1-0.1,0.1-0.2,0.2c0,0-0.1,0.1-0.1,0.1c0,0,0,0,0,0c-0.1,0-0.1,0-0.1-0.1
					C10,64.6,9.9,64.3,9.8,64c0,0,0-0.1,0-0.1c0.2-0.5,0.4-1,0.6-1.4c0.2-0.3,0.4-0.6,0.6-0.9c-0.3,0.2-0.6,0.5-0.8,0.8
					c-0.1,0.1-0.2,0.3-0.4,0.4c0,0-0.1,0.1-0.1,0.1c0,0,0,0,0,0c-0.1,0-0.1-0.1-0.1-0.1l0-0.1c0-0.1,0-0.1,0-0.2c0-0.1,0-0.3,0-0.4
					c0,0,0,0,0-0.1c0.2-0.4,0.5-0.8,0.8-1.1c0.3-0.3,0.5-0.6,0.8-0.8c-0.3,0.2-0.6,0.4-0.9,0.6l-0.2,0.1c0,0-0.1,0-0.1,0
					c0,0-0.1,0-0.1,0c-0.1,0-0.1-0.1-0.1-0.2c0.4-1.2,1.2-2.4,2.3-3.6c0,0,0.1,0,0.1,0c0,0,0.1,0,0.1,0l0.7,0.5l-0.3-0.9
					c0-0.1,0-0.1,0-0.2c1.8-1.6,4.4-3.2,7.7-4.7c0,0,0,0,0.1,0c0,0,0.1,0,0.1,0c0.1,0.1,0.3,0.3,0.4,0.5c0.1,0.2,0.2,0.3,0.4,0.5
					c0-0.2-0.1-0.4-0.1-0.6c-0.1-0.2-0.1-0.4-0.2-0.5c0-0.1,0-0.2,0.1-0.2c4-1.7,8.9-3.3,14.6-4.6c0,0,0,0,0,0c0.1,0,0.1,0,0.1,0.1
					l0.8,1.3l-0.2-1.4c0-0.1,0-0.2,0.1-0.2c4.8-1.1,10.1-2.1,15.7-2.8c0,0,0,0,0,0c0.1,0,0.1,0,0.1,0.1l0.6,1.1l0-1.1
					c0-0.1,0.1-0.1,0.1-0.2c5.5-0.7,11.2-1.3,17.2-1.6c0,0,0,0,0,0c0.1,0,0.1,0,0.1,0.1c0,0.1,0,0.2,0.1,0.3c0,0.2,0.1,0.3,0.1,0.4
					c0-0.1,0.1-0.3,0.1-0.5c0-0.1,0.1-0.2,0.1-0.3c0-0.1,0.1-0.1,0.1-0.1c3.7-0.2,7.6-0.4,11.4-0.4c0,0,0,0,0,0c0.1,0,0.1,0,0.1,0.1
					l0.4,1.6l0.3-1.6c0-0.1,0.1-0.1,0.1-0.1c1.2,0,2.5,0,3.7,0c1.7,0,3.5,0,5.3,0c0.1,0,0.1,0.1,0.2,0.1l0.1,1.4l0.4-1.5
					c0-0.1,0.1-0.1,0.1-0.1c0,0,0,0,0,0c4.3,0.1,8.6,0.3,12.8,0.6c0.1,0,0.1,0.1,0.1,0.1l0,2l0.5-2c0-0.1,0.1-0.1,0.1-0.1
					c0,0,0,0,0,0c9.5,0.7,18.3,1.8,26.2,3.4c0.1,0,0.1,0.1,0.1,0.2l0,1.4l0.6-1.3c0-0.1,0.1-0.1,0.1-0.1c0,0,0,0,0,0
					c11.5,2.3,20.4,5.5,25.6,9.1c0.1,0,0.1,0.1,0.1,0.2c-0.1,0.3-0.3,0.6-0.4,0.9c-0.1,0.2-0.2,0.4-0.4,0.6c0.2-0.1,0.4-0.3,0.5-0.5
					c0.2-0.2,0.4-0.4,0.7-0.7c0,0,0.1-0.1,0.1-0.1c0,0,0.1,0,0.1,0c1.8,1.4,3.1,2.8,3.9,4.3c0,0.1,0,0.1,0,0.2c0,0-0.1,0-0.1,0
					c0,0-0.1,0-0.1,0c-0.3-0.2-0.6-0.5-0.9-0.7c0.3,0.3,0.7,0.7,0.9,1c0.3,0.4,0.6,0.8,0.8,1.2c0.1,0.4,0.1,0.8,0.1,1.1
					c0,0.3,0,0.6-0.1,0.9c0,0.1-0.1,0.1-0.1,0.1c0,0,0,0,0,0c0,0-0.1,0-0.1-0.1c-0.1-0.1-0.2-0.3-0.4-0.4c-0.3-0.3-0.5-0.6-0.8-0.8
					c0.2,0.3,0.4,0.6,0.6,1c0.2,0.3,0.4,0.7,0.6,1.1c0,0,0,0.1,0,0.1c-0.2,0.5-0.4,1-0.7,1.4c0,0-0.1,0.1-0.1,0.1c0,0,0,0,0,0
					c-0.1,0-0.1,0-0.1-0.1c-0.3-0.8-0.7-1.6-1.1-2.2c-0.3-0.6-0.8-1.2-1.2-1.6c0.4,0.5,0.8,1.1,1,1.8c0.5,1,0.8,2.1,1,2.9
					c0,0,0,0.1,0,0.1c-0.3,0.3-0.5,0.7-0.8,0.9c0,0-0.1,0-0.1,0c0,0,0,0,0,0c-0.1,0-0.1-0.1-0.1-0.1c-1.3-4.1-7.5-8-17.8-11.2
					c-0.1,0-0.1-0.1-0.1-0.2c0-0.2,0.1-0.5,0.1-0.8c0-0.2,0.1-0.4,0.1-0.6c-0.1,0.2-0.2,0.3-0.3,0.5c-0.2,0.3-0.3,0.5-0.5,0.7
					c0,0-0.1,0.1-0.1,0.1c0,0,0,0,0,0c-7.4-2.2-16.7-4-27-5.1c-0.1,0-0.1-0.1-0.1-0.1c0-0.2-0.1-0.8-0.1-1.3c0-0.2,0-0.5,0-0.7
					c-0.1,0.2-0.2,0.4-0.2,0.6c-0.2,0.5-0.4,1-0.4,1.3c0,0.1-0.1,0.1-0.1,0.1c0,0,0,0,0,0c-9-1-18.5-1.5-28.3-1.5
					c-39.2,0-72.1,8.1-75,18.3C12.4,67.8,12.4,67.9,12.3,67.9C12.3,67.9,12.3,67.9,12.3,67.9z M17.4,56.8c-0.7,0-1.3,0.6-1.3,1.3
					c0,0.4,0.2,0.8,0.5,1c0,0,0.1,0.1,0.1,0.1c0,0,0,0.1-0.1,0.1c0,0-0.3,0.2-0.3,0.2c-0.4,0.3-0.7,0.5-1,0.8
					c0.3-0.2,0.7-0.5,1.1-0.7c0.1-0.1,0.3-0.2,0.4-0.3l0.1-0.1c0,0,0.1,0,0.1,0c0,0,0,0,0.1,0c0.2,0.1,0.3,0.1,0.5,0.1
					c0.6,0,1.1-0.4,1.3-1c0,0,0-0.1,0.1-0.1c2.2-1.1,4.8-2.1,7.8-3.1c4.1-1.3,9.3-2.6,15.5-3.7c3.1-0.6,6-1,8.9-1.4
					c3.1-0.5,6.4-0.8,9.2-1.1c2.9-0.3,6.1-0.6,9.3-0.8c3.1-0.2,6.1-0.4,9-0.6c5.4-0.3,10.7-0.5,16-0.6l1.1,0c0,0,0,0,0.1,0
					c0.2,0.1,0.3,0.1,0.5,0.1c0.2,0,0.3,0,0.5-0.1c0,0,0,0,0.1,0c1.5,0,2.9,0,4.2,0c2,0,3.6,0,5,0.1c0.5,0,0.9,0,1.3,0
					c-0.4,0-0.8-0.1-1.3-0.1c-1-0.1-2.1-0.2-3.3-0.3c-0.1,0-0.1-0.1-0.1-0.1l-0.1-1.9l-0.5,1.9c0,0.1-0.1,0.1-0.1,0.1c0,0,0,0,0,0
					c-1.4-0.1-2.7-0.2-4.1-0.3c0,0-0.1,0-0.1-0.1c0,0,0-0.1,0-0.1c0-0.1,0-0.2,0-0.3c0-0.7-0.6-1.3-1.3-1.3c-0.7,0-1.3,0.6-1.3,1.3
					c0,0,0,0.1,0,0.1c0,0,0,0.1,0,0.1c0,0,0,0.1,0,0.1c0,0-0.1,0-0.1,0c0,0-0.1,0-0.1,0C92,46.1,89.6,46,87,46
					c-0.1,0-0.1-0.1-0.1-0.1l-0.2-1l-0.2,0.9c0,0.1-0.1,0.1-0.1,0.1c0,0-0.9,0-1.4,0c-1.5,0-3.1,0-4.6,0c0,0,0,0,0,0
					c-0.1,0-0.1-0.1-0.2-0.1c0-0.7-0.6-1.3-1.3-1.3c-0.7,0-1.3,0.6-1.3,1.3c0,0.1-0.1,0.2-0.1,0.2c-1,0-2,0.1-3.1,0.1c0,0,0,0,0,0
					c-0.1,0-0.1,0-0.1-0.1c-0.1-0.2-0.1-0.4-0.2-0.6c0,0.2-0.1,0.4-0.1,0.5c0,0.1-0.1,0.1-0.1,0.1c-1.7,0.1-3.2,0.2-4.5,0.3
					c0,0-0.8,0.1-0.8,0.1c-0.1,0-0.1,0-0.1-0.1c0-0.1-0.1-0.2-0.1-0.2c-0.1-0.2-0.1-0.3-0.2-0.5c0,0.2,0,0.3,0,0.5
					c0,0.1,0,0.2,0,0.2c0,0.1-0.1,0.1-0.1,0.1c-1.2,0.1-2.3,0.2-3.5,0.3c0,0,0,0,0,0c0,0-0.1,0-0.1,0c0,0,0-0.1,0-0.1
					c0-0.8-0.6-1.4-1.3-1.4c-0.7,0-1.3,0.6-1.3,1.3c0,0.1,0,0.2,0,0.3c0,0,0,0.1,0,0.1c0,0-0.1,0.1-0.1,0.1L60,47.3
					c-0.7,0.1-2,0.2-2,0.2c-0.1,0-0.1,0-0.1-0.1l-0.4-0.8l-0.1,0.8c0,0.1-0.1,0.1-0.1,0.1c-2.4,0.3-4.4,0.6-6.3,0.8c0,0,0,0,0,0
					c-0.1,0-0.1,0-0.1-0.1l-0.4-0.7l-0.1,0.8c0,0.1-0.1,0.1-0.1,0.1c-1.3,0.2-2.6,0.4-3.9,0.6c0,0,0,0,0,0c-0.1,0-0.1,0-0.1-0.1
					c-0.2-0.6-0.7-0.9-1.3-0.9c-0.7,0-1.3,0.6-1.3,1.3c0,0,0,0.1,0,0.1c0,0.1,0,0.1-0.1,0.2c-0.6,0.1-1.1,0.2-1.7,0.3l-0.5,0.1
					c0,0,0,0,0,0c-0.1,0-0.1,0-0.1-0.1l-0.3-0.8l-0.1,0.9c0,0.1-0.1,0.1-0.1,0.1c-1.9,0.4-3.7,0.9-5.4,1.3c0,0,0,0,0,0
					c-0.1,0-0.1,0-0.1-0.1c-0.1-0.2-0.2-0.4-0.3-0.5c-0.1-0.1-0.2-0.3-0.3-0.4c0,0.2,0,0.3,0,0.5c0,0.2,0,0.5,0,0.6
					c0,0.1-0.1,0.1-0.1,0.1c-1.2,0.3-2.4,0.7-3.6,1c0,0,0,0,0,0c0,0-0.1,0-0.1,0c0,0-0.1-0.1-0.1-0.1c-0.1-0.6-0.7-1-1.3-1
					c-0.7,0-1.3,0.6-1.3,1.3c0,0.2,0,0.4,0.1,0.5c0,0,0,0.1,0,0.1c0,0,0,0.1-0.1,0.1c-0.6,0.2-1.1,0.4-1.6,0.6
					c-2.7,1-5.2,2.2-7.4,3.5c0,0-0.1,0-0.1,0c0,0,0,0-0.1,0c0,0-0.1-0.1-0.1-0.1C18.5,57.2,18,56.8,17.4,56.8z M153,53.9
					c-0.7,0-1.3,0.6-1.3,1.3s0.6,1.3,1.3,1.3s1.3-0.6,1.3-1.3S153.7,53.9,153,53.9z M141.2,49.9c-0.7,0-1.3,0.6-1.3,1.3
					s0.6,1.3,1.3,1.3c0.7,0,1.3-0.6,1.3-1.3S141.9,49.9,141.2,49.9z M126.7,46.9c-0.7,0-1.3,0.6-1.3,1.3s0.6,1.3,1.3,1.3
					c0.7,0,1.3-0.6,1.3-1.3S127.4,46.9,126.7,46.9z M111.6,45.3c-0.7,0-1.3,0.6-1.3,1.3s0.6,1.3,1.3,1.3s1.3-0.6,1.3-1.3
					S112.3,45.3,111.6,45.3z"/>
			</g>
			<g class="st1">
				<path class="st2" d="M144.4,69.2c-1.2,0-2.1-0.5-2.1-1.1c0-0.6,0.9-1.1,2.1-1.1c1.2,0,2.1,0.5,2.1,1.1
					C146.5,68.7,145.6,69.2,144.4,69.2z"/>
			</g>
		</g>
		<g>
			<path class="st3" d="M120.9,40.9c-0.7-2-1.9-3.8-3.6-5.5c0.1-0.1,0.2-0.3,0.2-0.4c0.1-0.6-0.2-1.1-0.8-1.2c0,0-0.6-0.1-1.6-0.3
				c-5.1-3.9-12.9-6.6-21.8-7.4c-0.4-1.7-2.6-2.9-5.3-3l-0.5-13L87,23c-2.4,0.2-4.4,1.5-4.7,3c-9.2,0.9-17.1,3.8-22.2,8
				c-0.6,0.1-1.2,0.3-1.9,0.4c-0.6,0.1-0.9,0.7-0.8,1.2c0.1,0.2,0.2,0.4,0.3,0.6c-1.2,1.4-2.1,2.9-2.7,4.5
				c-28.5,3.7-48.3,12.2-48.3,22c0,13.3,36.2,24.1,80.8,24.1c44.6,0,80.8-10.8,80.8-24.1C168.4,53,148.9,44.6,120.9,40.9z M87.7,25
				c0,0,1.3-0.3,0.6-1.4c0,0,3.4,0.1,3.9,2.3c0,0-4.1-0.5-7.4,0.1C84.8,26,86,25.4,87.7,25z M87.9,27.9c8.4,0,16.2,1.8,22,4.8
				c-7.1-0.9-18.9-2-32.1-1.1c0.3-0.3,0.6-0.6,1-0.9c0.9-0.8,2.1-1.4,2.1-1.4s-1.2,0.3-2.4,0.9c-1.2,0.6-2.2,1.5-2.2,1.5l0,0
				c-1.2,0.1-2.5,0.2-3.7,0.3c0.6-0.4,1.4-0.9,2.2-1.3c1-0.5,2.1-0.9,2.9-1.1c0.8-0.3,1.3-0.5,1.3-0.5s-0.6,0.1-1.4,0.3
				c-0.8,0.2-1.9,0.4-3,0.8c-1.1,0.4-2.2,0.8-2.9,1.3c-0.4,0.2-0.7,0.4-0.9,0.6c-0.1,0.1-0.2,0.1-0.2,0.2c-1.8,0.2-3.6,0.5-5.3,0.8
				C71.1,29.8,79.2,27.9,87.9,27.9z M60.9,34.9c0.8-0.2,1.7-0.4,2.8-0.6c1.1-0.2,2.3-0.4,3.7-0.7c0.7-0.1,1.4-0.3,2.1-0.3
				c0.7-0.1,1.5-0.2,2.3-0.3c0.8-0.1,1.6-0.2,2.4-0.3c0.8-0.1,1.7-0.1,2.5-0.2c0.9-0.1,1.7-0.1,2.6-0.2c0.9-0.1,1.8-0.1,2.7-0.1
				c0.9,0,1.8-0.1,2.7-0.1c0.9,0,1.8,0,2.7,0c3.7,0,7.3,0.1,10.7,0.3c3.4,0.2,6.6,0.6,9.3,0.9c2.7,0.3,5,0.7,6.5,1
				c1.6,0.3,2.5,0.5,2.5,0.5s-0.9-0.2-2.5-0.4c-1.6-0.2-3.8-0.5-6.6-0.8c-2.7-0.3-5.9-0.5-9.3-0.8c-3.4-0.2-7.1-0.3-10.7-0.3
				c-0.9,0-1.8,0-2.7,0c-0.9,0-1.8,0.1-2.7,0.1c-0.9,0-1.8,0.1-2.7,0.1c-0.9,0.1-1.7,0.1-2.6,0.2C75.9,33,75,33,74.2,33.1
				c-0.8,0.1-1.6,0.2-2.4,0.3c-0.8,0.1-1.5,0.2-2.3,0.2c-0.7,0.1-1.4,0.2-2.1,0.3c-1.4,0.2-2.6,0.4-3.7,0.6c-1.1,0.2-2,0.4-2.8,0.6
				c-1.6,0.3-2.5,0.5-2.5,0.5S59.3,35.3,60.9,34.9z M61,35.9c23-4.9,46.2-1.7,53.1-0.6c2,1.6,3.4,3.3,4.3,5.2
				c-0.9-0.1-1.8-0.2-2.8-0.3c-0.3-0.4-0.6-1-1-1.5c-0.8-1-1.7-1.9-1.7-1.9s0.7,1,1.2,2.2c0.2,0.4,0.3,0.8,0.5,1.1
				c-8.5-0.9-17.6-1.4-27.2-1.4c-8,0-15.7,0.3-23,1c0-0.1,0-0.3,0-0.5c0-0.6,0.2-1.1,0.2-1.1s-0.4,0.4-0.7,1
				c-0.2,0.2-0.3,0.5-0.4,0.7C62.8,39.9,62,40,61.2,40c0.1-0.3,0.2-0.6,0.3-0.9c0.3-0.8,0.7-1.6,0.7-1.6s-0.6,0.6-1.2,1.3
				c-0.4,0.5-0.7,1-0.9,1.3c-0.9,0.1-1.8,0.2-2.7,0.3C58.2,38.8,59.5,37.3,61,35.9z M21.4,72.1c-0.6-0.3-1.5-0.7-2.4-1.5
				c-0.4-0.4-0.9-0.9-1.2-1.5c-0.3-0.6-0.5-1.4-0.4-2.2c0.1-0.8,0.4-1.5,0.8-2.2c0.4-0.7,0.9-1.3,1.5-1.8c1.2-1.1,2.5-1.9,3.7-2.6
				c1.3-0.7,2.5-1.1,3.6-1.5c1.1-0.4,2-0.5,2.7-0.7c0.7-0.1,1-0.2,1-0.2s-0.4,0.1-1,0.4c-0.6,0.2-1.5,0.6-2.5,1
				c-1,0.4-2.2,1.1-3.4,1.7c-1.2,0.7-2.4,1.5-3.4,2.5c-1,1-1.9,2.1-2.1,3.4c-0.2,1.2,0.3,2.4,1.1,3.2c0.7,0.8,1.5,1.3,2,1.7
				c0.6,0.4,0.9,0.6,0.9,0.6S22,72.4,21.4,72.1z M151.5,75.1c-0.4,0.2-1,0.5-1.6,0.7c-0.7,0.3-1.4,0.6-2.3,0.9
				c-3.4,1.3-8.4,2.9-14.5,4.2c-6.1,1.3-13.3,2.5-21,3.3c-7.8,0.8-16.1,1.2-24.4,1.2c-8.3,0-16.6-0.4-24.4-1.1
				c-7.8-0.7-14.9-1.9-21-3.2c-6.1-1.3-11.1-2.8-14.5-4c-0.8-0.3-1.6-0.6-2.3-0.9c-0.7-0.2-1.2-0.5-1.7-0.7C23,75.2,22.5,75,22.5,75
				s0.5,0.2,1.4,0.5c0.5,0.2,1,0.4,1.7,0.6c0.7,0.2,1.4,0.5,2.3,0.8c3.4,1.1,8.5,2.5,14.6,3.6c6.1,1.2,13.3,2.1,21,2.8
				c7.7,0.7,16,1,24.3,1c8.3,0,16.6-0.4,24.3-1.1c7.7-0.7,14.9-1.7,21-3c6.1-1.2,11.1-2.6,14.5-3.8c0.9-0.3,1.6-0.6,2.3-0.8
				C150.4,75.5,151,75.2,151.5,75.1c0.9-0.4,1.4-0.6,1.4-0.6S152.3,74.7,151.5,75.1z M94.2,79.9C94.2,79.9,94.2,79.9,94.2,79.9
				c1.7,0.5,3.4,0.9,3.4,0.9s-1.7-0.1-3.5-0.4c-1.1-0.2-2.3-0.4-2.9-0.5c-1.3,0-2.6,0-3.9,0c-0.6,0-1.2,0-1.9,0
				c1.8,0.6,3.5,0.9,3.5,0.9s-1.9-0.1-3.8-0.4c-0.9-0.1-1.7-0.3-2.4-0.5c-2.3,0-4.5-0.1-6.7-0.2c1.4,0.5,2.8,0.9,2.8,0.9
				s-1.7-0.2-3.4-0.6c-0.5-0.1-1.1-0.3-1.6-0.4c-2.5-0.1-5-0.2-7.4-0.4c0,0,0,0,0,0c1.8,0.8,3.6,1.4,3.6,1.4s-1.9-0.4-3.8-0.9
				c-0.8-0.2-1.6-0.5-2.2-0.7c-1.8-0.1-3.6-0.3-5.3-0.4c0,0,0,0,0.1,0c1.8,0.9,3.6,1.7,3.6,1.7s-1.9-0.5-3.8-1.2
				c-0.7-0.3-1.5-0.5-2.1-0.8c-2.6-0.3-5-0.6-7.4-0.9c0.2,0.1,0.4,0.2,0.6,0.3c1.7,0.9,3.6,1.7,3.6,1.7s-1.9-0.5-3.8-1.2
				c-0.9-0.3-1.8-0.7-2.6-1c-0.1-0.1-0.3-0.1-0.4-0.2c-2.1-0.3-4-0.7-5.9-1c0.3,0.2,0.6,0.4,0.9,0.5c1.8,1,3.8,1.8,3.8,1.8
				s-2-0.5-4-1.3C40,76.7,38.7,76,38,75.7c-1.5-0.3-3-0.7-4.3-1c0.3,0.3,0.6,0.5,1,0.8c1.8,1.4,3.8,2.5,3.8,2.5s-2.2-0.8-4.1-2.1
				c-1-0.6-2-1.3-2.7-1.8c-2.6-0.8-4.8-1.6-6.4-2.5c0.3,0.3,0.6,0.7,0.9,1c1,1,2.1,1.8,3,2.3c0.5,0.3,0.9,0.4,1.1,0.6
				c0.3,0.1,0.4,0.2,0.4,0.2s-0.2-0.1-0.5-0.1c-0.3-0.1-0.7-0.2-1.2-0.5c-1-0.4-2.2-1.1-3.3-2c-1-0.8-1.9-1.8-2.5-2.6
				c-1.4-1-2.1-2.1-2.1-3.2c0-1.9,2.1-3.7,5.9-5.3c-0.1,0.3-0.1,0.6-0.2,0.9c-0.1,0.4-0.1,0.7-0.1,0.7s0.2-0.2,0.4-0.5
				c0.3-0.3,0.6-0.7,1-1.1c0.3-0.3,0.5-0.5,0.8-0.7c1-0.3,2-0.7,3.1-1c-0.2,0.4-0.3,0.9-0.4,1.2c-0.1,0.5-0.2,0.8-0.2,0.8
				s0.2-0.3,0.5-0.7c0.3-0.4,0.7-0.8,1.2-1.2c0.5-0.4,1-0.6,1.4-0.8c0.4-0.2,0.7-0.2,0.7-0.2l0,0c1.1-0.3,2.3-0.5,3.5-0.8
				c-1.1,1.3-1.9,2.5-1.9,2.5s1.5-1.4,3.2-2.4c0.4-0.2,0.8-0.5,1.2-0.6c1.3-0.2,2.6-0.5,3.9-0.7c-0.6,0.6-1.1,1.2-1.4,1.7
				c-0.5,0.6-0.7,1-0.7,1s0.4-0.3,1-0.8c0.6-0.5,1.4-1,2.3-1.5c0.7-0.4,1.4-0.7,1.9-0.9c1.7-0.2,3.4-0.5,5.2-0.7
				c-1.5,1.3-2.7,2.8-2.7,2.8s1.7-1.3,3.5-2.1c1-0.5,1.9-0.8,2.7-1.1c1.6-0.2,3.2-0.3,4.8-0.4c-0.5,0.6-0.9,1.2-1.3,1.7
				c-0.3,0.5-0.6,0.9-0.6,0.9s0.3-0.3,0.8-0.6c0.5-0.4,1.2-0.8,1.9-1.2c0.7-0.4,1.4-0.7,1.9-0.8c0.1,0,0.2,0,0.2-0.1
				c2.8-0.2,5.7-0.4,8.6-0.5c-0.1,0.1-0.2,0.2-0.3,0.2c-0.7,0.7-1.3,1.5-1.8,2.2c-0.4,0.6-0.6,1.1-0.6,1.1s0.3-0.4,0.9-0.8
				c0.5-0.5,1.3-1.1,2.2-1.5c0.8-0.5,1.7-0.8,2.4-1c0.3-0.1,0.5-0.2,0.7-0.2c3.1-0.1,6.4-0.1,9.6-0.2c-1.1,1.1-2.1,2.2-2.1,2.2
				s1.3-0.7,2.7-1.3c0.8-0.4,1.6-0.7,2.2-0.8c35.5,0.2,64,5.9,64,12.9C153.4,73.7,127.5,79.2,94.2,79.9z M61.9,53
				c0,0,1.1-0.2,3.1-0.4c1-0.1,2.2-0.3,3.6-0.5c1.4-0.1,3-0.3,4.7-0.4c1.7-0.2,3.6-0.2,5.5-0.4c1,0,2-0.1,3-0.1c1,0,2.1,0,3.2-0.1
				c1.1,0,2.2-0.1,3.3,0c1.1,0,2.2,0,3.3,0c2.3,0,4.5,0.1,6.8,0.1c2.3,0.1,4.6,0.2,6.8,0.4c2.2,0.2,4.5,0.3,6.6,0.5
				c4.3,0.4,8.2,0.9,11.6,1.3c3.4,0.4,6.2,0.9,8.2,1.2c2,0.3,3.1,0.6,3.1,0.6s-1.1-0.2-3.1-0.4c-2-0.2-4.8-0.5-8.2-0.8
				c-3.4-0.4-7.4-0.6-11.6-1c-2.1-0.2-4.3-0.3-6.6-0.4c-2.2-0.1-4.5-0.2-6.8-0.3c-2.3-0.1-4.6-0.2-6.8-0.2c-1.1,0-2.2,0-3.3-0.1
				c-1.1,0-2.2,0-3.3,0c-1.1,0-2.1,0-3.1,0c-1,0-2,0-3,0.1c-2,0.1-3.8,0-5.5,0.2c-1.7,0.1-3.3,0.2-4.7,0.2c-1.4,0.1-2.6,0.2-3.6,0.3
				C63,52.9,61.9,53,61.9,53z M164.8,63.3c-0.1-0.1-0.2-0.3-0.4-0.4c-0.9-1-1.9-1.8-1.9-1.8s0.8,1,1.5,2.1c0.2,0.4,0.4,0.8,0.6,1.1
				c-0.2,0.5-0.4,0.9-0.7,1.4c-0.3-0.7-0.6-1.5-1.1-2.2c-0.6-1-1.4-1.9-2.1-2.5c-0.4-0.3-0.7-0.5-0.9-0.6c-0.2-0.1-0.4-0.2-0.4-0.2
				s0.1,0.1,0.3,0.2c0.2,0.1,0.5,0.4,0.8,0.7c0.6,0.6,1.3,1.5,1.8,2.6c0.4,1,0.7,2,0.9,2.8c-0.2,0.3-0.5,0.6-0.8,0.9
				c-1.4-4.3-7.9-8.2-17.9-11.3c0-0.2,0.1-0.5,0.1-0.8c0.1-0.7,0.3-1.3,0.3-1.3s-0.4,0.5-0.8,1.1c-0.2,0.3-0.3,0.5-0.5,0.8
				c-7.4-2.2-16.6-4-27-5.1c0-0.2-0.1-0.8-0.1-1.3c0-0.7,0-1.5,0-1.5s-0.3,0.7-0.6,1.4c-0.2,0.5-0.4,1.1-0.4,1.3
				c-8.7-0.9-18.3-1.5-28.3-1.5c-39.7,0-72.2,8.1-75.2,18.4c-0.1-0.2-0.3-0.3-0.4-0.5c0-0.1,0-0.1,0-0.2c0-0.4,0.1-1,0.3-1.5
				c0.2-0.5,0.5-1,0.7-1.4c0.3-0.4,0.5-0.6,0.5-0.6s-0.3,0.2-0.6,0.5c-0.3,0.3-0.8,0.7-1.1,1.3c-0.2,0.4-0.4,0.7-0.6,1.1
				c-0.2-0.2-0.3-0.5-0.5-0.7c0.1-0.2,0.1-0.5,0.2-0.7c0.3-0.7,0.8-1.4,0.8-1.4S11,64,10.5,64.7c-0.1,0.1-0.1,0.1-0.2,0.2
				C10.2,64.6,10,64.3,10,64c0.1-0.4,0.3-0.9,0.6-1.4c0.3-0.5,0.7-1,1-1.4c0.3-0.4,0.6-0.6,0.6-0.6s-0.3,0.2-0.7,0.4
				c-0.4,0.3-0.9,0.7-1.3,1.2c-0.1,0.1-0.3,0.3-0.4,0.5c0-0.1,0-0.2,0-0.3c0-0.1,0-0.3,0-0.4c0.2-0.3,0.5-0.7,0.8-1.1
				c0.4-0.5,0.9-0.9,1.2-1.3c0.3-0.4,0.5-0.6,0.5-0.6s-0.2,0.2-0.6,0.5c-0.4,0.3-0.9,0.6-1.4,1c-0.1,0-0.1,0.1-0.2,0.1
				c0.4-1.2,1.1-2.4,2.2-3.5l1,0.7l-0.4-1.3c1.8-1.7,4.4-3.2,7.6-4.7c0.1,0.1,0.3,0.3,0.4,0.5c0.4,0.5,0.7,1.1,0.7,1.1
				s-0.1-0.7-0.3-1.3c-0.1-0.2-0.1-0.4-0.2-0.5c4-1.7,8.9-3.3,14.6-4.6l1.2,1.9l-0.3-2.1c4.8-1.1,10.1-2,15.7-2.8l0.9,1.6l0-1.7
				c5.4-0.7,11.2-1.2,17.2-1.6c0,0.1,0,0.2,0.1,0.3c0.1,0.5,0.4,1,0.4,1s0.1-0.5,0.2-1c0-0.1,0.1-0.2,0.1-0.3
				c3.7-0.2,7.5-0.3,11.4-0.4l0.6,2.3l0.4-2.3c1.2,0,2.5,0,3.7,0c1.8,0,3.5,0,5.3,0l0.2,2.3l0.6-2.3c4.4,0.1,8.6,0.3,12.8,0.6
				l0.1,3.1l0.8-3.1c9.6,0.7,18.4,1.8,26.2,3.4l0,2.1l0.9-2c11.4,2.3,20.3,5.4,25.6,9.1c-0.1,0.3-0.2,0.6-0.4,0.9
				c-0.4,0.7-0.9,1.4-0.9,1.4s0.7-0.5,1.3-1c0.2-0.2,0.5-0.5,0.7-0.7c1.8,1.3,3.1,2.8,3.8,4.2c-0.6-0.5-1.1-0.8-1.6-1.1
				c-0.5-0.3-0.8-0.5-0.8-0.5s0.3,0.3,0.7,0.6c0.4,0.4,1,0.9,1.5,1.5c0.3,0.4,0.6,0.8,0.8,1.2c0.1,0.3,0.1,0.7,0.1,1.1
				C164.9,62.7,164.9,63,164.8,63.3z"/>
			<path class="st3" d="M123.3,69c0-4.4-16.3-8-36.4-8c-18.4,0-33.5,3-36,6.9l-3.3,0.2c0.3-0.5,0.8-1,1.4-1.6
				c0.8-0.7,1.8-1.5,3.1-2.1c1.2-0.6,2.7-1.2,4.1-1.6c3-0.9,6-1.7,8.2-2.3c2.3-0.6,3.8-0.9,3.8-0.9s-1.5,0.2-3.9,0.5
				c-2.3,0.4-5.4,0.9-8.4,1.5c-1.5,0.3-3.1,0.7-4.5,1.3c-1.4,0.6-2.7,1.3-3.7,2.1c-1,0.8-1.7,1.6-2.2,2.2c-0.3,0.4-0.5,0.8-0.6,0.9
				l-1.8,0.1c0.1-0.5,0.4-1.1,0.6-1.7c0.3-0.6,0.7-1.3,1.1-1.7c0.3-0.4,0.6-0.7,0.6-0.7s-0.3,0.2-0.8,0.5C44.2,65,43.6,65.5,43,66
				c-0.6,0.5-1.1,1.1-1.5,1.6C41.2,68,41,68.4,41,68.4l-11.2,0.7l21.1,0.8c2.1,4,17.5,7,36.1,7C107,77,123.3,73.4,123.3,69z
				 M57.8,67.2c1.3,0,2.4,0.5,2.4,1.2c0,0.5-0.6,0.9-1.4,1.1c0.4,0.3,0.7,0.5,1.2,0.8c1.5,0.9,3.1,1.4,3.1,1.4s-1.7-0.4-3.2-1.1
				c-0.6-0.3-1.1-0.6-1.6-0.9c-0.1,0-0.3,0-0.4,0c-0.2,0-0.4,0-0.6,0c0.2,0.1,0.3,0.3,0.5,0.4c0.9,0.7,1.9,1.3,1.9,1.3
				s-1.1-0.5-2.1-1.1c-0.5-0.3-0.9-0.6-1.3-0.9c-0.6-0.2-0.9-0.5-0.9-0.9C55.3,67.7,56.4,67.2,57.8,67.2z M74.3,75.3
				c-0.6,0-1.5-0.1-2.6-0.2c-1.1-0.1-2.4-0.2-3.7-0.4c-1.3-0.2-2.8-0.4-4.2-0.7c-1.4-0.3-2.8-0.7-4.2-1.1c-1.3-0.4-2.5-0.8-3.5-1.3
				c-0.5-0.2-0.9-0.5-1.3-0.7c-0.2-0.1-0.4-0.2-0.6-0.3c-0.2-0.1-0.3-0.2-0.4-0.3c-0.5-0.4-0.8-0.6-0.8-0.6s0.3,0.2,0.9,0.5
				c0.1,0.1,0.3,0.2,0.5,0.2c0.2,0.1,0.4,0.2,0.6,0.2c0.4,0.2,0.9,0.4,1.4,0.6c1,0.4,2.2,0.7,3.5,1.1c1.3,0.4,2.7,0.7,4.1,1
				c1.4,0.3,2.8,0.6,4.2,0.8c1.3,0.2,2.6,0.4,3.7,0.6c1.1,0.2,2,0.3,2.6,0.4c0.6,0.1,1,0.1,1,0.1S74.9,75.3,74.3,75.3z M87,74.9
				c-12.6,0-22.8-2.6-22.8-5.7s10.2-5.7,22.8-5.7s22.8,2.6,22.8,5.7S99.6,74.9,87,74.9z M106.6,63.7c-1.3-0.2-2.7-0.4-4-0.6
				c-1.3-0.2-2.4-0.3-3.5-0.4c-1-0.1-1.9-0.2-2.5-0.3c-0.6-0.1-0.9-0.1-0.9-0.1s0.3,0,0.9,0c0.6,0,1.5,0,2.5,0.1
				c1,0.1,2.2,0.1,3.5,0.3c1.3,0.1,2.6,0.3,4,0.5c1.3,0.2,2.7,0.5,3.9,0.8c1.3,0.3,2.4,0.6,3.4,0.9c1,0.3,1.8,0.6,2.3,0.8
				c0.6,0.2,0.9,0.4,0.9,0.4s-0.3-0.1-0.9-0.3c-0.6-0.2-1.4-0.4-2.4-0.6c-1-0.2-2.2-0.5-3.4-0.7C109.3,64.1,108,63.9,106.6,63.7z
				 M117.9,69.2c-0.1,0.1-0.2,0.2-0.3,0.3c-0.4,0.4-1.1,0.9-1.7,1.4c-0.7,0.4-1.4,0.8-1.9,1c-0.5,0.2-0.9,0.3-0.9,0.3
				s0.4-0.1,0.9-0.4c0.5-0.3,1.2-0.7,1.8-1.2c0.5-0.4,0.9-0.8,1.3-1.2c-0.3,0-0.5,0.1-0.8,0.1c-0.2,0-0.4,0-0.6,0
				c-0.2,0.1-0.3,0.3-0.5,0.4c-0.6,0.4-1.3,0.7-1.3,0.7s0.6-0.4,1.2-0.9c0.1-0.1,0.2-0.2,0.2-0.2c-0.8-0.2-1.4-0.6-1.4-1.1
				c0-0.6,1.1-1.2,2.4-1.2c1.3,0,2.4,0.5,2.4,1.2C118.7,68.7,118.4,69,117.9,69.2z"/>
			<path class="st3" d="M104.7,70.8c-0.8,0.3-1.8,0.6-2.9,0.9c-1.2,0.3-2.5,0.5-3.9,0.6c-1.4,0.2-3,0.3-4.7,0.4
				c-1.7,0.1-3.4,0.1-5.2,0.1c-1.8,0-3.7-0.1-5.6-0.2c-1.9-0.1-3.8-0.3-5.7-0.6c-1.9-0.3-3.8-0.6-5.6-1.2c-0.4-0.1-0.9-0.3-1.3-0.5
				c-0.4-0.2-0.8-0.4-1.1-0.6c-0.2-0.1-0.3-0.2-0.4-0.3c0-0.1-0.1-0.1-0.1-0.2c0,0,0-0.1,0-0.1c0,0,0,0,0,0l0,0c0,0,0-0.1,0-0.1
				l0-0.1l0,0c0,0,0-0.1,0-0.1c0-0.1,0.1-0.2,0.2-0.3c0.5-0.5,1.3-0.9,2-1.2c0.8-0.3,1.6-0.6,2.4-0.8c1.6-0.4,3.1-0.7,4.6-1
				c2.9-0.5,5.3-0.7,7-0.8c1.7-0.1,2.7-0.2,2.7-0.2s-0.2,0-0.7,0c-0.5,0-1.1-0.1-2-0.1c-1.7,0-4.2,0-7.1,0.2
				c-1.5,0.1-3.1,0.3-4.7,0.7c-0.8,0.2-1.7,0.4-2.6,0.7c-0.9,0.3-1.8,0.7-2.6,1.5c-0.2,0.2-0.4,0.5-0.5,0.8
				c-0.1,0.2-0.1,0.4-0.1,0.6l0,0l0,0.1l0,0l0,0.1c0,0,0,0.1,0,0.1l0,0.2c0,0.1,0.1,0.2,0.1,0.3l0.1,0.2c0.1,0.1,0.2,0.3,0.3,0.4
				c0.2,0.2,0.4,0.4,0.6,0.6c0.9,0.6,1.8,1,2.8,1.3c1.9,0.6,3.9,1,5.8,1.3c2,0.3,3.9,0.4,5.9,0.5c1.9,0.1,3.9,0.1,5.7,0
				c3.7-0.1,7.2-0.5,10.1-1c2.9-0.5,5.3-1.3,6.8-2.2c0.8-0.4,1.3-0.9,1.5-1.3c0.2-0.4,0.2-0.7,0.2-0.7c0,0,0,0.3-0.3,0.6
				C106.1,70.1,105.5,70.5,104.7,70.8z"/>
			<path class="st3" d="M136.3,61.8l0.7-2l-2.5,1.7c-3.2-0.6-6.8-1.1-10.7-1.6c0-0.2,0-0.5,0-0.8c0-0.9,0.1-1.8,0.1-1.8
				s-0.6,0.7-1.1,1.4c-0.2,0.3-0.5,0.6-0.7,0.9C111.3,58.3,99,57.7,89,58.3c8,0.2,14.4,0.8,19.3,1.5c0.3,0,0.5,0,0.8,0
				c1.4,0,3.3,0.1,5.2,0.3c1.9,0.2,3.7,0.5,5.1,0.8c1.4,0.3,2.3,0.6,2.3,0.6s-0.9-0.2-2.3-0.4c-1.4-0.2-3.3-0.4-5.1-0.5
				c-0.5,0-0.9,0-1.3,0c6.8,1.3,9.6,2.7,9.6,2.7c8.4-2.7,10.7,5.2,4.7,5.2c0.1,1.1-0.3,2-0.9,2.9l3.2,0.3l-3.9,0.5
				c-0.4,0.4-0.8,0.8-1.3,1.1c0.4,0,0.9,0,1.3,0c0.5,0,1,0,1.5-0.1c0.5,0,1-0.1,1.5-0.1c4.1-0.3,8.3-0.7,8.3-0.7s-4.1,0.6-8.2,1.2
				c-0.5,0.1-1,0.2-1.5,0.2c-0.5,0.1-1,0.1-1.5,0.2c-1,0.1-1.9,0.1-2.7,0.2c-0.1,0-0.2,0-0.3,0c-1.7,0.9-3.3,1.3-3.3,1.3
				c25.1-0.9,30.9-5.6,29.9-8.9C149,65,143.8,63.3,136.3,61.8z M144.4,69c-1.1,0-1.9-0.4-1.9-1c0-0.5,0.9-1,1.9-1
				c1.1,0,1.9,0.4,1.9,1C146.3,68.6,145.5,69,144.4,69z"/>
			<path class="st3" d="M105.7,46.9c-1-0.1-2.1-0.2-3.3-0.3l-0.1-2.9l-0.8,2.8c-1.2-0.1-2.6-0.2-4.1-0.3c0-0.1,0-0.2,0-0.3
				c0-0.8-0.7-1.5-1.5-1.5c-0.8,0-1.5,0.7-1.5,1.5c0,0.1,0,0.1,0,0.2c0,0-0.1,0-0.1,0c-2.3-0.1-4.8-0.2-7.4-0.2l-0.4-1.6l-0.4,1.6
				c-1.9,0-3.9,0-5.9,0c0-0.8-0.7-1.4-1.5-1.4c-0.8,0-1.5,0.7-1.5,1.5c-1,0-2,0.1-3.1,0.1c0,0,0,0,0,0c-0.2-0.6-0.3-1.2-0.3-1.2
				s-0.1,0.6-0.2,1.2c0,0,0,0,0,0c-1.5,0.1-3,0.1-4.5,0.3c-0.2,0-0.5,0-0.7,0.1c0-0.1-0.1-0.2-0.1-0.3c-0.2-0.5-0.5-1-0.5-1
				s0,0.5,0,1.1c0,0.1,0,0.2,0,0.2c-1.2,0.1-2.3,0.2-3.5,0.3c0,0,0,0,0,0c0-0.8-0.7-1.5-1.5-1.5c-0.8,0-1.5,0.7-1.5,1.5
				c0,0.1,0,0.2,0,0.3c-0.5,0-1,0.1-1.5,0.1c-0.7,0.1-1.3,0.2-2,0.2l-0.6-1.2l-0.2,1.3c-2.1,0.3-4.2,0.5-6.3,0.8l-0.6-1.2l-0.1,1.3
				c-1.3,0.2-2.6,0.4-3.9,0.6c-0.2-0.6-0.7-1-1.4-1c-0.8,0-1.5,0.7-1.5,1.5c0,0,0,0.1,0,0.1c-0.6,0.1-1.1,0.2-1.7,0.3
				c-0.2,0-0.3,0.1-0.5,0.1l-0.6-1.4l-0.1,1.5c-1.9,0.4-3.7,0.8-5.4,1.3c-0.1-0.2-0.2-0.4-0.3-0.6c-0.3-0.5-0.6-0.9-0.6-0.9
				s0.1,0.5,0.1,1c0,0.2,0,0.5,0,0.6c-1.2,0.3-2.4,0.7-3.6,1c-0.2-0.7-0.7-1.1-1.4-1.1c-0.8,0-1.5,0.7-1.5,1.5c0,0.2,0,0.4,0.1,0.6
				c-0.6,0.2-1.1,0.4-1.6,0.6c-2.9,1.1-5.4,2.3-7.4,3.5c-0.2-0.6-0.7-1.1-1.4-1.1c-0.8,0-1.5,0.7-1.5,1.5c0,0.5,0.2,0.9,0.5,1.1
				c-0.1,0.1-0.2,0.2-0.3,0.2c-1.1,0.8-1.9,1.5-2.4,2.1c-0.5,0.5-0.8,0.8-0.8,0.8s0.3-0.2,0.9-0.7c0.5-0.5,1.4-1.1,2.6-1.8
				c0.2-0.1,0.4-0.2,0.6-0.3c0.2,0.1,0.3,0.1,0.5,0.1c0.7,0,1.3-0.5,1.4-1.1c2.1-1,4.7-2.1,7.8-3c4.4-1.4,9.7-2.6,15.5-3.7
				c2.9-0.5,5.8-1,8.9-1.4c3-0.4,6.1-0.8,9.2-1.1c3.1-0.3,6.2-0.6,9.3-0.8c3.1-0.2,6.1-0.4,9-0.6c5.8-0.3,11.3-0.5,16-0.6
				c0.4,0,0.7,0,1.1,0c0.2,0.1,0.3,0.1,0.5,0.1c0.2,0,0.4,0,0.6-0.1c3.7,0,6.9,0,9.2,0c1.4,0,2.4,0.1,3.2,0.1c0.7,0,1.1,0,1.1,0
				s-0.4-0.1-1.1-0.2C108.1,47.2,107.1,47,105.7,46.9z"/>
			<path class="st3" d="M153,53.8c-0.8,0-1.5,0.7-1.5,1.5c0,0.8,0.7,1.5,1.5,1.5c0.8,0,1.5-0.7,1.5-1.5
				C154.5,54.5,153.8,53.8,153,53.8z"/>
			<path class="st3" d="M141.2,49.7c-0.8,0-1.5,0.7-1.5,1.5c0,0.8,0.7,1.5,1.5,1.5c0.8,0,1.5-0.7,1.5-1.5
				C142.7,50.4,142,49.7,141.2,49.7z"/>
			<path class="st3" d="M126.7,46.7c-0.8,0-1.5,0.7-1.5,1.5c0,0.8,0.7,1.5,1.5,1.5c0.8,0,1.5-0.7,1.5-1.5
				C128.2,47.4,127.5,46.7,126.7,46.7z"/>
			<path class="st3" d="M111.6,45.1c-0.8,0-1.5,0.7-1.5,1.5s0.7,1.5,1.5,1.5c0.8,0,1.5-0.7,1.5-1.5S112.4,45.1,111.6,45.1z"/>
			<path class="st3" d="M67.8,36.6c0,0.1,0,0.2,0,0.3c0,0.9,0.8,1.7,1.8,1.7c1,0,1.8-0.7,1.8-1.7c0-0.2,0-0.3-0.1-0.5
				c0.2,0,0.4,0,0.6,0c2.2-0.1,4.7-0.2,7.4-0.3c1.4,0,2.7-0.1,4.2-0.1c1,0,1.9,0,2.9,0c0.2,0.8,0.9,1.4,1.8,1.4
				c0.9,0,1.6-0.6,1.8-1.4c0.7,0,1.4,0,2.2,0c1.4,0,2.8,0,4.2,0c2.7,0,5.2,0.1,7.4,0.2c0.9,0,1.7,0.1,2.5,0.1c0,0.1,0,0.2,0,0.4
				c0,0.9,0.8,1.7,1.8,1.7c1,0,1.8-0.7,1.8-1.7c0-0.1,0-0.1,0-0.2c0.8,0,1.2,0.1,1.2,0.1s-0.4-0.1-1.2-0.2c-0.2-0.8-0.9-1.3-1.8-1.3
				c-0.7,0-1.3,0.4-1.6,0.9c-0.8-0.1-1.7-0.2-2.6-0.3c-2.2-0.2-4.7-0.4-7.4-0.5c-1.4-0.1-2.8-0.1-4.2-0.1c-0.8,0-1.6,0-2.4,0
				c-0.3-0.5-0.9-0.9-1.6-0.9c-0.7,0-1.3,0.4-1.6,0.9c-1,0-2.1,0.1-3.1,0.1c-1.4,0-2.8,0.1-4.2,0.2c-2.7,0.2-5.2,0.4-7.4,0.7
				c-0.3,0-0.6,0.1-0.8,0.1c-0.3-0.4-0.8-0.6-1.4-0.6c-0.8,0-1.4,0.4-1.7,1c-0.5,0.1-0.9,0.1-1.3,0.2c-1.2,0.2-2,0.3-2,0.3
				s0.7,0,2-0.1C67,36.6,67.4,36.6,67.8,36.6z"/>
		</g>
		<g>
			<g>
				<path class="st3" d="M110.5,72.3c0,0,0,0.3,0.1,0.8c0.1,0.5,0.2,1.2,0.4,2.2c0.2,0.9,0.4,2.1,0.7,3.3c0.2,0.6,0.3,1.3,0.5,1.9
					c0,0.1,0.1,0.2,0.1,0.3l0,0.1l0,0c0,0.1,0,0.1,0.1,0.2c0,0.1,0.1,0,0.2,0c0,0,0,0,0,0l0,0l0.2,0c0.1,0,0.1,0,0.2,0
					c0.1,0,0.3,0,0.4,0c0.1,0,0.3,0.1,0.4,0.1c0.1,0,0.2,0.1,0.3,0.1c0.1,0.1,0.2,0.1,0.3,0.2c0.1,0.1,0.1,0.1,0.2,0.1
					c0.1,0.1,0.2,0.2,0.3,0.3c0.1,0.2,0.3,0.3,0.3,0.5l0.2,0.4l0.2,0.4c0.1,0.3,0.2,0.5,0.3,0.8c0.2,0.5,0.3,1,0.4,1.5
					c0.2,1,0.5,1.9,0.7,3c0.2,1,0.3,2.1,0.4,3.3c0,0.6,0,1.2-0.2,1.9c-0.1,0.3-0.2,0.7-0.4,1.1c-0.2,0.4-0.5,0.7-0.8,1
					c-0.3,0.3-0.6,0.5-0.9,0.6c-0.3,0.2-0.5,0.3-0.6,0.4c-0.1,0.1-0.2,0.2-0.3,0.2c-0.1,0.1-0.1,0.2-0.2,0.3
					c-0.1,0.3-0.1,0.8-0.1,1.2c0,0.5,0.1,1,0.1,1.5c0.2,1,0.4,2,0.8,2.8c0.4,0.8,0.9,1.2,1.9,1.6c0.5,0.2,1.2,0.5,1.7,0.9
					c0.5,0.5,1,1.1,1.2,1.7c0.1,0.3,0.2,0.6,0.3,0.9c0.1,0.3,0.2,0.6,0.2,0.8c0.1,0.5,0.2,1,0.3,1.6c0.2,1,0.5,2.1,0.7,3.1
					c0.9,4,1.8,7.8,2.6,11c1.6,6.4,2.6,10.7,2.6,10.7s-1.3-4.2-3.2-10.5c-1-3.2-2.1-6.9-3.3-10.8c-0.3-1-0.6-2-0.9-3
					c-0.1-0.5-0.3-1-0.4-1.6c-0.1-0.3-0.2-0.5-0.2-0.7c-0.1-0.2-0.2-0.4-0.3-0.6c-0.2-0.4-0.5-0.7-0.7-0.9c-0.3-0.2-0.7-0.4-1.2-0.5
					c-0.5-0.2-1.2-0.4-1.8-0.8c-0.6-0.4-1.1-1-1.4-1.5c-0.3-0.6-0.6-1.2-0.8-1.7c-0.2-0.6-0.3-1.1-0.5-1.7c-0.1-0.6-0.2-1.2-0.3-1.8
					c-0.1-0.6-0.1-1.3,0.1-2c0.1-0.4,0.2-0.8,0.5-1.1c0.2-0.4,0.5-0.7,0.8-0.9c0.3-0.2,0.6-0.4,0.8-0.5c0.2-0.1,0.3-0.2,0.4-0.3
					c0.2-0.2,0.2-0.3,0.3-0.7c0.1-0.3,0.1-0.8,0-1.2c-0.1-0.9-0.3-1.8-0.5-2.7c-0.2-0.9-0.5-1.8-0.8-2.7c-0.1-0.4-0.3-0.8-0.4-1.2
					c-0.1-0.2-0.2-0.4-0.2-0.5l-0.1-0.2c0-0.1-0.1-0.1-0.1-0.2c0,0,0,0,0,0l0,0l0,0l0.1-0.1l0.1-0.1c0.2-0.1,0.3-0.2,0.4-0.3
					c0.1-0.1,0.1-0.1,0.1-0.2c0,0,0.1-0.1,0.1-0.1c0,0,0-0.1,0.1-0.1c0,0,0,0,0,0c0,0,0,0,0,0c0,2.6,0,0.7,0,1.3l0,0l0,0
					c0,0,0.1,0.1,0,0.1l-0.1,0.1c-0.1,0-0.2,0.1-0.3,0.1c-0.4,0.1-0.6,0.2-1,0.2c-0.3,0-0.7-0.1-1-0.3c-0.6-0.3-1.1-0.8-1.4-1.5
					c-0.1-0.2-0.2-0.3-0.3-0.5l-0.2-0.4c-0.1-0.1-0.1-0.3-0.2-0.4l-0.1-0.3c-0.3-0.8-0.5-1.5-0.7-2.2c-0.4-1.3-0.7-2.5-1-3.4
					c-0.3-0.9-0.4-1.7-0.6-2.2c-0.1-0.5-0.2-0.8-0.2-0.8L110.5,72.3z"/>
			</g>
			<g>
				<path class="st3" d="M69.5,73.2c0,0-0.1,0.3-0.2,0.8c-0.1,0.5-0.3,1.3-0.6,2.2c-0.3,0.9-0.6,2.1-1,3.4c-0.2,0.7-0.4,1.4-0.7,2.2
					l-0.1,0.3c-0.1,0.1-0.1,0.3-0.2,0.4l-0.2,0.4c-0.1,0.1-0.2,0.3-0.3,0.5c-0.3,0.6-0.8,1.2-1.4,1.5c-0.3,0.2-0.7,0.2-1,0.3
					c-0.3,0-0.6-0.1-1-0.2c-0.1,0-0.2-0.1-0.3-0.1l-0.1-0.1c0,0,0-0.1,0-0.1l0,0l0,0c0-0.6,0,1.3,0-1.3c0,0,0,0,0,0c0,0,0,0,0,0
					c0,0,0,0.1,0.1,0.1c0,0,0,0.1,0.1,0.1c0,0.1,0.1,0.1,0.1,0.2c0.1,0.1,0.2,0.2,0.4,0.3l0.1,0.1l0.1,0.1l0,0l0,0c0,0,0,0,0,0
					c0,0.1-0.1,0.1-0.1,0.2l-0.1,0.2c-0.1,0.1-0.2,0.3-0.2,0.5c-0.1,0.4-0.3,0.8-0.4,1.2c-0.3,0.9-0.5,1.8-0.8,2.7
					c-0.2,0.9-0.4,1.9-0.5,2.7c0,0.4,0,0.9,0,1.2c0.1,0.3,0.1,0.5,0.3,0.7c0.1,0.1,0.2,0.2,0.4,0.3c0.2,0.1,0.5,0.3,0.8,0.5
					c0.3,0.2,0.6,0.6,0.8,0.9c0.2,0.4,0.4,0.8,0.5,1.1c0.2,0.7,0.2,1.4,0.1,2c-0.1,0.6-0.2,1.2-0.3,1.8c-0.1,0.6-0.2,1.1-0.5,1.7
					c-0.2,0.6-0.4,1.2-0.8,1.7c-0.4,0.6-0.8,1.1-1.4,1.5c-0.6,0.4-1.3,0.6-1.8,0.8c-0.5,0.2-0.9,0.3-1.2,0.5
					c-0.3,0.2-0.6,0.5-0.7,0.9c-0.1,0.2-0.2,0.4-0.3,0.6c-0.1,0.2-0.2,0.4-0.2,0.7c-0.1,0.5-0.3,1-0.4,1.6c-0.3,1-0.6,2-0.9,3
					c-1.2,4-2.3,7.7-3.3,10.8c-1.9,6.3-3.2,10.5-3.2,10.5s1-4.3,2.6-10.7c0.8-3.2,1.6-7,2.6-11c0.2-1,0.5-2,0.7-3.1
					c0.1-0.5,0.2-1,0.3-1.6c0.1-0.3,0.1-0.6,0.2-0.8c0.1-0.3,0.2-0.6,0.3-0.9c0.2-0.6,0.6-1.2,1.2-1.7c0.6-0.5,1.2-0.7,1.7-0.9
					c1.1-0.4,1.5-0.8,1.9-1.6c0.4-0.8,0.6-1.8,0.8-2.8c0.1-0.5,0.1-1,0.1-1.5c0-0.5,0-0.9-0.1-1.2c-0.1-0.2-0.1-0.3-0.2-0.3
					c-0.1-0.1-0.1-0.1-0.3-0.2c-0.1-0.1-0.3-0.2-0.6-0.4c-0.3-0.2-0.6-0.4-0.9-0.6c-0.3-0.3-0.6-0.6-0.8-1c-0.2-0.4-0.3-0.7-0.4-1.1
					c-0.2-0.7-0.2-1.3-0.2-1.9c0-1.2,0.2-2.3,0.4-3.3c0.2-1,0.4-2,0.7-3c0.1-0.5,0.3-1,0.4-1.5c0.1-0.3,0.2-0.5,0.3-0.8l0.2-0.4
					l0.2-0.4c0.1-0.2,0.2-0.3,0.3-0.5c0.1-0.1,0.2-0.2,0.3-0.3c0.1-0.1,0.1-0.1,0.2-0.1c0.1-0.1,0.2-0.1,0.3-0.2
					c0.1-0.1,0.2-0.1,0.3-0.1c0.1,0,0.2-0.1,0.4-0.1c0.1,0,0.3,0,0.4,0c0.1,0,0.1,0,0.2,0l0.2,0l0,0c0,0,0,0,0,0
					c0.1,0,0.1,0.1,0.2,0c0-0.1,0.1-0.1,0.1-0.2l0,0l0-0.1c0-0.1,0.1-0.2,0.1-0.3c0.2-0.6,0.4-1.3,0.5-1.9c0.3-1.3,0.5-2.4,0.7-3.3
					c0.2-0.9,0.3-1.7,0.4-2.2c0.1-0.5,0.1-0.8,0.1-0.8L69.5,73.2z"/>
			</g>
			<g>
				<path class="st3" d="M102.4,93c0,0,0.2,0.5,0.5,1.5c0.3,1,0.7,2.4,1.1,4c0.4,1.7,0.8,3.6,1.2,5.7c0.2,1.1,0.3,2.1,0.5,3.2
					c0.1,1.1,0.3,2.2,0.4,3.4c0.1,1.1,0.2,2.3,0.3,3.4c0.1,1.1,0.2,2.2,0.2,3.3c0.1,2.1,0.2,4.1,0.2,5.8c0,1.7-0.1,3.2-0.1,4.2
					c-0.1,1-0.1,1.6-0.1,1.6s-0.2-0.5-0.5-1.5c-0.3-1-0.7-2.4-1.1-4c-0.4-1.7-0.8-3.6-1.2-5.7c-0.2-1.1-0.4-2.1-0.5-3.2
					c-0.1-1.1-0.3-2.2-0.4-3.4c-0.1-1.1-0.2-2.3-0.3-3.4c-0.1-1.1-0.2-2.2-0.2-3.3c-0.1-2.1-0.2-4.1-0.2-5.8c0-1.7,0.1-3.2,0.1-4.2
					C102.4,93.6,102.4,93,102.4,93z"/>
			</g>
			<g>
				<path class="st3" d="M77.6,68c0,0,0,0.8,0.1,2.1c0,1.3,0,3.2-0.1,5.5c-0.1,2.3-0.3,4.9-0.6,7.7c-0.2,1.4-0.3,2.9-0.5,4.3
					c-0.2,1.5-0.4,3-0.6,4.5c-0.3,1.5-0.5,3-0.8,4.4c-0.2,1.5-0.6,2.9-0.9,4.3c-0.6,2.8-1.2,5.4-1.8,7.5c-0.6,2.2-1.2,4-1.6,5.3
					c-0.4,1.3-0.7,2-0.7,2s0-0.8,0.1-2.1c0.1-1.3,0.2-3.2,0.4-5.5c0.2-2.3,0.5-4.9,0.8-7.7c0.2-1.4,0.3-2.9,0.6-4.3
					c0.2-1.5,0.4-3,0.7-4.4c0.2-1.5,0.5-3,0.7-4.4c0.3-1.5,0.5-2.9,0.8-4.3c0.5-2.8,1-5.4,1.6-7.6c0.5-2.2,1-4,1.3-5.3
					C77.4,68.8,77.6,68,77.6,68z"/>
			</g>
			<g>
				<path class="st3" d="M68.7,125.3c0,0,0.1,0.2,0.2,0.4c0.1,0.3,0.2,0.7,0.3,1.1c0.1,0.5,0.1,1,0.1,1.5c0,0.3,0,0.6,0,0.8
					c0,0.3-0.1,0.6-0.1,0.9c-0.1,0.3-0.1,0.6-0.2,0.9c0,0.3-0.1,0.6-0.2,0.8c-0.2,0.5-0.3,1-0.5,1.4c-0.2,0.4-0.4,0.7-0.6,1
					c-0.2,0.2-0.3,0.4-0.3,0.4s-0.1-0.2-0.2-0.4c-0.1-0.3-0.2-0.7-0.3-1.1c-0.1-0.5-0.1-1-0.1-1.5c0-0.3,0-0.6,0-0.8
					c0-0.3,0.1-0.6,0.1-0.9c0.1-0.3,0.1-0.6,0.2-0.9c0.1-0.3,0.1-0.6,0.2-0.8c0.2-0.5,0.3-1,0.5-1.4c0.2-0.4,0.4-0.7,0.6-1
					C68.6,125.4,68.7,125.3,68.7,125.3z"/>
			</g>
			<g>
				<path class="st3" d="M88.3,70.5c0,0,0.1,0.7,0.3,1.9c0.2,1.2,0.5,2.9,0.8,4.9c0.3,2.1,0.6,4.4,0.8,7c0.1,1.3,0.2,2.6,0.4,4
					c0.1,1.4,0.2,2.7,0.3,4.1c0.1,1.4,0.2,2.7,0.2,4.1c0.1,1.4,0.1,2.7,0.2,4c0.1,2.6,0.2,5,0.2,7.1c0,2.1-0.1,3.8-0.1,5
					c0,1.2-0.1,1.9-0.1,1.9s-0.1-0.7-0.3-1.9c-0.2-1.2-0.5-2.9-0.8-4.9c-0.3-2.1-0.6-4.4-0.8-7c-0.1-1.3-0.3-2.6-0.4-4
					c-0.1-1.4-0.2-2.7-0.3-4.1c-0.1-1.4-0.2-2.7-0.2-4.1c-0.1-1.4-0.1-2.7-0.2-4c-0.1-2.6-0.1-5-0.2-7.1c0-2.1,0.1-3.8,0.1-5
					C88.3,71.2,88.3,70.5,88.3,70.5z"/>
			</g>
			<g>
				<path class="st3" d="M91.9,120.9c0,0,0.1,0.2,0.3,0.5c0.1,0.3,0.4,0.8,0.5,1.4c0.2,0.6,0.4,1.3,0.5,2c0.1,0.4,0.1,0.8,0.2,1.1
					c0,0.4,0.1,0.8,0.1,1.2c0,0.4,0,0.8,0.1,1.2c0,0.4,0,0.8,0,1.2c0,0.8-0.1,1.5-0.1,2.1c-0.1,0.6-0.2,1.1-0.3,1.5
					c-0.1,0.4-0.2,0.6-0.2,0.6s-0.1-0.2-0.3-0.5c-0.1-0.3-0.4-0.8-0.5-1.4c-0.2-0.6-0.4-1.3-0.5-2c-0.1-0.4-0.2-0.7-0.2-1.1
					c0-0.4-0.1-0.8-0.1-1.2c0-0.4,0-0.8-0.1-1.2c0-0.4,0-0.8,0-1.2c0-0.8,0.1-1.5,0.1-2.1c0.1-0.6,0.2-1.1,0.3-1.5
					C91.8,121.2,91.9,120.9,91.9,120.9z"/>
			</g>
			<g>
				<path class="st3" d="M99.9,67.8c0,0,0.1,0.1,0.3,0.4c0.2,0.3,0.4,0.6,0.7,1.1c0.2,0.4,0.5,1,0.7,1.6c0.1,0.3,0.2,0.6,0.3,0.9
					c0.1,0.3,0.2,0.6,0.3,0.9c0.1,0.3,0.1,0.6,0.2,1c0.1,0.3,0.1,0.6,0.1,0.9c0.1,0.6,0.1,1.2,0.1,1.7c0,0.5-0.1,1-0.1,1.3
					c0,0.3-0.1,0.5-0.1,0.5s-0.1-0.1-0.3-0.4c-0.2-0.3-0.4-0.6-0.7-1.1c-0.2-0.4-0.5-1-0.7-1.6c-0.1-0.3-0.2-0.6-0.3-0.9
					c-0.1-0.3-0.2-0.6-0.3-0.9c-0.1-0.3-0.1-0.6-0.2-1c0-0.3-0.1-0.6-0.1-0.9c-0.1-0.6-0.1-1.2-0.1-1.7c0-0.5,0.1-1,0.1-1.3
					C99.8,68,99.9,67.8,99.9,67.8z"/>
			</g>
		</g>
	</g>
</g>
</svg>
